<?xml version="1.0" standalone="no"?>
<!DOCTYPE svg PUBLIC "-//W3C//DTD SVG 20010904//EN"
 "http://www.w3.org/TR/2001/REC-SVG-20010904/DTD/svg10.dtd">
<svg version="1.0" xmlns="http://www.w3.org/2000/svg"
 width="2267.000000pt" height="2267.000000pt" viewBox="0 0 2267.000000 2267.000000"
 preserveAspectRatio="xMidYMid meet">
<metadata>
Created by potrace 1.14, written by Peter Selinger 2001-2017
</metadata>
<g transform="translate(0.000000,2267.000000) scale(0.100000,-0.100000)"
fill="#000000" stroke="none">
<path d="M3478 22649 c-1081 -62 -2079 -614 -2716 -1502 -115 -160 -201 -306
-302 -512 -218 -444 -332 -884 -360 -1393 -13 -242 -13 -15592 0 -15834 28
-509 142 -949 360 -1393 188 -383 392 -668 689 -966 298 -297 583 -501 966
-689 354 -174 684 -274 1110 -337 114 -17 501 -18 8120 -18 7619 0 8006 1
8120 18 426 63 756 163 1110 337 383 188 668 392 966 689 297 298 501 583 689
966 174 354 274 684 337 1110 17 114 18 505 18 8200 0 7695 -1 8086 -18 8200
-63 426 -163 756 -337 1110 -188 383 -392 668 -689 966 -298 297 -583 501
-966 689 -443 217 -881 331 -1390 360 -205 12 -15501 11 -15707 -1z m3747
-2744 c647 -76 1158 -272 1580 -605 286 -226 555 -585 701 -936 113 -273 185
-561 226 -909 17 -148 17 -683 0 -840 -99 -899 -351 -1749 -835 -2825 -103
-229 -200 -435 -404 -860 -269 -560 -351 -740 -457 -1003 -71 -178 -164 -446
-205 -597 -20 -76 -63 -311 -57 -317 1 -2 69 37 149 87 81 50 211 127 289 172
127 72 166 102 353 267 283 250 435 387 598 541 807 759 1388 1370 1834 1925
986 1229 1548 2429 1708 3644 8 63 16 116 18 117 3 4 107 -141 184 -256 263
-395 498 -867 621 -1250 65 -202 89 -294 126 -480 63 -317 71 -407 71 -785 -1
-361 -8 -445 -60 -727 -13 -73 -22 -134 -20 -136 5 -5 138 75 400 242 1079
684 1803 1312 2184 1891 141 214 263 496 291 675 17 108 19 111 40 60 10 -25
16 -48 13 -52 -2 -5 0 -8 4 -8 5 0 17 -24 27 -52 10 -29 46 -134 81 -233 83
-235 185 -574 201 -663 3 -15 18 -79 34 -142 34 -137 76 -337 84 -400 3 -25 8
-58 11 -75 63 -401 91 -829 75 -1176 -28 -607 -137 -1131 -350 -1681 -21 -54
-36 -98 -34 -98 20 0 386 212 589 340 724 460 1318 997 1781 1610 110 146 310
449 400 605 l69 120 22 -170 c38 -294 54 -530 60 -850 8 -424 -12 -703 -78
-1120 -161 -1016 -600 -1893 -1388 -2774 -134 -150 -528 -542 -706 -702 -469
-422 -1003 -844 -1749 -1385 -437 -316 -717 -581 -931 -879 -93 -129 -200
-346 -231 -470 -44 -174 -33 -349 31 -475 132 -261 480 -403 950 -386 252 8
515 53 805 138 155 45 205 71 482 255 1083 718 1950 1662 2539 2763 97 183
263 524 272 562 4 15 13 33 20 40 6 7 13 20 14 28 4 25 62 156 63 140 0 -8 -7
-73 -15 -145 -189 -1622 -1064 -3156 -2525 -4426 -540 -469 -1168 -904 -1825
-1263 -157 -86 -545 -282 -675 -340 -498 -224 -947 -392 -1395 -524 -208 -61
-660 -173 -790 -196 -686 -118 -1018 -152 -1575 -163 -1366 -25 -2750 272
-3872 833 -160 79 -416 218 -468 254 -14 9 -101 56 -195 105 -797 413 -1420
848 -1939 1354 -121 119 -349 369 -432 476 -225 291 -364 506 -499 775 -257
513 -376 946 -415 1505 -51 730 125 1588 485 2365 251 543 629 1109 1136 1701
242 283 449 508 1008 1099 719 759 1096 1200 1440 1682 343 482 525 907 586
1371 29 228 13 511 -40 699 -32 112 -107 288 -151 354 -19 28 -34 54 -34 58 0
4 -6 13 -12 21 -7 7 -22 26 -33 41 -38 53 -173 182 -231 221 -128 86 -244 138
-390 175 -78 19 -116 22 -299 22 -162 1 -230 -3 -297 -17 -314 -63 -614 -199
-899 -408 -71 -52 -243 -233 -730 -769 -418 -461 -601 -653 -759 -798 -306
-280 -499 -393 -675 -394 -103 0 -195 45 -231 113 -123 238 153 898 693 1657
40 56 73 106 73 111 0 4 -12 18 -26 32 -15 13 -62 66 -105 118 -223 267 -269
572 -136 888 154 364 582 750 1146 1033 522 261 1110 427 1726 486 188 18 689
12 880 -11z"/>
</g>
</svg>
